<?xml version="1.0" encoding="UTF-8" standalone="no"?>
<!-- Created with Inkscape (http://www.inkscape.org/) -->

<svg
   xmlns:dc="http://purl.org/dc/elements/1.1/"
   xmlns:cc="http://creativecommons.org/ns#"
   xmlns:rdf="http://www.w3.org/1999/02/22-rdf-syntax-ns#"
   xmlns:svg="http://www.w3.org/2000/svg"
   xmlns="http://www.w3.org/2000/svg"
   xmlns:sodipodi="http://sodipodi.sourceforge.net/DTD/sodipodi-0.dtd"
   xmlns:inkscape="http://www.inkscape.org/namespaces/inkscape"
   width="210mm"
   height="297mm"
   id="svg2"
   version="1.1"
   inkscape:version="0.48.0 r9654"
   sodipodi:docname="gliphs.svg">
  <defs
     id="defs4">
    <inkscape:path-effect
       fuse_tolerance="0"
       vertical_pattern="false"
       prop_units="false"
       tang_offset="0"
       normal_offset="0"
       spacing="0"
       scale_y_rel="false"
       prop_scale="1"
       copytype="single_stretched"
       pattern="M 0,0 1,0"
       is_visible="true"
       id="path-effect3038"
       effect="skeletal" />
    <inkscape:path-effect
       effect="skeletal"
       id="path-effect3034"
       is_visible="true"
       pattern="M 0,0 1,0"
       copytype="single_stretched"
       prop_scale="1"
       scale_y_rel="false"
       spacing="0"
       normal_offset="0"
       tang_offset="0"
       prop_units="false"
       vertical_pattern="false"
       fuse_tolerance="0" />
    <inkscape:path-effect
       effect="skeletal"
       id="path-effect3030"
       is_visible="true"
       pattern="M 0,0 1,0"
       copytype="single_stretched"
       prop_scale="1"
       scale_y_rel="false"
       spacing="0"
       normal_offset="0"
       tang_offset="0"
       prop_units="false"
       vertical_pattern="false"
       fuse_tolerance="0" />
    <inkscape:path-effect
       effect="skeletal"
       id="path-effect3026"
       is_visible="true"
       pattern="M 0,0 1,0"
       copytype="single_stretched"
       prop_scale="1"
       scale_y_rel="false"
       spacing="0"
       normal_offset="0"
       tang_offset="0"
       prop_units="false"
       vertical_pattern="false"
       fuse_tolerance="0" />
    <inkscape:path-effect
       fuse_tolerance="0"
       vertical_pattern="false"
       prop_units="false"
       tang_offset="0"
       normal_offset="0"
       spacing="0"
       scale_y_rel="false"
       prop_scale="1"
       copytype="single_stretched"
       pattern="m -0.71428568,-5.7142857 0.99999997,0"
       is_visible="true"
       id="path-effect3021"
       effect="skeletal" />
    <inkscape:path-effect
       effect="skeletal"
       id="path-effect3017"
       is_visible="true"
       pattern="M 0,0 1,0"
       copytype="single_stretched"
       prop_scale="1"
       scale_y_rel="false"
       spacing="0"
       normal_offset="0"
       tang_offset="0"
       prop_units="false"
       vertical_pattern="false"
       fuse_tolerance="0" />
    <inkscape:path-effect
       fuse_tolerance="0"
       vertical_pattern="false"
       prop_units="false"
       tang_offset="0"
       normal_offset="0"
       spacing="0"
       scale_y_rel="false"
       prop_scale="1"
       copytype="single_stretched"
       pattern="m 23.928572,0 1,0"
       is_visible="true"
       id="path-effect2991"
       effect="skeletal" />
    <inkscape:path-effect
       effect="skeletal"
       id="path-effect2987"
       is_visible="true"
       pattern="M 0,0 1,0"
       copytype="single_stretched"
       prop_scale="1"
       scale_y_rel="false"
       spacing="0"
       normal_offset="0"
       tang_offset="0"
       prop_units="false"
       vertical_pattern="false"
       fuse_tolerance="0" />
  </defs>
  <sodipodi:namedview
     id="base"
     pagecolor="#ffffff"
     bordercolor="#666666"
     borderopacity="1.0"
     inkscape:pageopacity="0.0"
     inkscape:pageshadow="2"
     inkscape:zoom="2.8"
     inkscape:cx="141.07143"
     inkscape:cy="1033.2896"
     inkscape:document-units="px"
     inkscape:current-layer="layer1"
     showgrid="false"
     inkscape:window-width="1280"
     inkscape:window-height="774"
     inkscape:window-x="0"
     inkscape:window-y="26"
     inkscape:window-maximized="1" />
  <metadata
     id="metadata7">
    <rdf:RDF>
      <cc:Work
         rdf:about="">
        <dc:format>image/svg+xml</dc:format>
        <dc:type
           rdf:resource="http://purl.org/dc/dcmitype/StillImage" />
        <dc:title></dc:title>
      </cc:Work>
    </rdf:RDF>
  </metadata>
  <g
     inkscape:label="Camada 1"
     inkscape:groupmode="layer"
     id="layer1">
    <path
       style="fill:#008080;fill-opacity:1;stroke:none"
       d="m 175,8.0803656 0,0.71875 -23.9375,23.9062504 5.4375,0 0,22.875 9.5625,0 0,-22.875 9.65625,0 8.9375,0 0,22.875 9.5625,0 0,-22.875 5.4375,0 -23.9375,-23.9062504 0,-0.71875 -0.34375,0.34375 z m -5,27.8437504 0,18.9375 11.4375,0 0,-18.9375 z"
       id="Home"
       inkscape:connector-curvature="0"
       sodipodi:nodetypes="cccccccccccccccccccccc"
       inkscape:label="Casa" />
    <path
       style="fill:#2b2200;fill-opacity:1;stroke:none"
       d="m 253.75519,3.4464286 -7.63474,7.9175094 1.69661,2.981919 9.89689,-9.8968867 -3.95876,-1.0025417 z m 4.39576,2.0564957 -8.61157,8.6115767 1.87655,1.850847 c 0,0 1.06934,13.010752 -8.89435,20.050837 -9.96368,7.040077 -15.65507,5.295477 -15.65507,5.295477 l -1.59379,-2.930507 -6.78643,6.760731 4.11299,7.660448 c 0,0 9.40847,2.934176 25.86044,-8.817227 16.45197,-11.751409 14.70394,-33.49518 14.70394,-33.49518 l -5.01271,-4.9870027 z m -35.73161,29.7163687 -6.27232,5.526833 1.46526,3.521749 7.50621,-7.480504 -2.69915,-1.568078 z"
       id="Contato"
       inkscape:connector-curvature="0"
       inkscape:label="" />
    <path
       style="font-size:46.23203278px;font-style:normal;font-variant:normal;font-weight:bold;font-stretch:normal;text-align:start;text-anchor:start;fill:#000000;fill-opacity:1;stroke:none;font-family:Courier New;-inkscape-font-specification:Courier New Bold"
       d="M 21.78125 4.875 C 10.932799 4.875 2.15625 13.6828 2.15625 24.53125 C 2.15625 35.379701 10.932799 44.15625 21.78125 44.15625 C 32.629701 44.15625 41.4375 35.379701 41.4375 24.53125 C 41.4375 13.6828 32.629701 4.875 21.78125 4.875 z M 22.03125 6.59375 C 23.148 6.612527 24.276116 6.7465013 25.375 6.9375 C 37.791228 8.9400878 44.119069 25.361448 36.1875 35.15625 C 29.112236 45.603861 11.631002 44.338892 6.09375 33.09375 C -0.47714455 22.216825 8.2160719 6.656515 20.90625 6.625 C 21.278612 6.600801 21.658999 6.587491 22.03125 6.59375 z M 19.34375 8.875 L 19.34375 13.75 L 24.84375 13.75 L 24.84375 8.875 L 19.34375 8.875 z M 17.125 17.65625 C 16.011331 17.65627 15.200328 17.876085 14.71875 18.3125 C 14.252211 18.733905 14.031245 19.260292 14.03125 19.9375 C 14.031245 20.629794 14.268411 21.219832 14.75 21.65625 C 15.231578 22.077652 16.026381 22.281266 17.125 22.28125 L 20.84375 22.28125 L 20.84375 33.53125 L 15.28125 33.53125 C 14.167583 33.531255 13.38783 33.751069 12.90625 34.1875 C 12.439713 34.608889 12.187497 35.135276 12.1875 35.8125 C 12.187497 36.504778 12.439713 37.063566 12.90625 37.5 C 13.38783 37.921386 14.167583 38.15625 15.28125 38.15625 L 31.03125 38.15625 C 32.144889 38.15625 32.939692 37.921386 33.40625 37.5 C 33.887809 37.063566 34.124975 36.520979 34.125 35.84375 C 34.124975 35.151476 33.887809 34.608889 33.40625 34.1875 C 32.939692 33.751069 32.144889 33.531255 31.03125 33.53125 L 25.46875 33.53125 L 25.46875 17.65625 L 17.125 17.65625 z "
       id="Info"
       inkscape:label="" />
  </g>
</svg>
